<svg width="64" height="52" viewBox="0 0 64 52" fill="none" xmlns="http://www.w3.org/2000/svg">
<path d="M5.68822 7.92475C10.1311 3.10825 16.8539 0.666748 25.6667 0.666748H28.8334V9.59358L26.2874 10.1034C21.9491 10.9711 18.9312 12.6779 17.3162 15.1827C16.4735 16.5322 15.9956 18.0772 15.9292 19.6667H25.6667C26.5066 19.6667 27.312 20.0004 27.9059 20.5942C28.4998 21.1881 28.8334 21.9936 28.8334 22.8334V45.0001C28.8334 48.4929 25.9929 51.3334 22.5001 51.3334H3.50005C2.6602 51.3334 1.85475 50.9998 1.26088 50.4059C0.667018 49.8121 0.333388 49.0066 0.333388 48.1667V32.3334L0.342888 23.0899C0.314388 22.7384 -0.287279 14.4101 5.68822 7.92475ZM57.3334 51.3334H38.3334C37.4935 51.3334 36.6881 50.9998 36.0942 50.4059C35.5004 49.8121 35.1667 49.0066 35.1667 48.1667V32.3334L35.1762 23.0899C35.1477 22.7384 34.5461 14.4101 40.5216 7.92475C44.9644 3.10825 51.6872 0.666748 60.5001 0.666748H63.6667V9.59358L61.1207 10.1034C56.7824 10.9711 53.7646 12.6779 52.1496 15.1827C51.3069 16.5322 50.829 18.0772 50.7626 19.6667H60.5001C61.3399 19.6667 62.1454 20.0004 62.7392 20.5942C63.3331 21.1881 63.6667 21.9936 63.6667 22.8334V45.0001C63.6667 48.4929 60.8262 51.3334 57.3334 51.3334Z" fill="white"/>
</svg>
