<svg width="25" height="25" viewBox="0 0 50 50" fill="#2571D1" xmlns="http://www.w3.org/2000/svg">
<path fill-rule="evenodd" clip-rule="evenodd" d="M15.552 2.21958C17.9958 2.10714 18.7749 2.08215 24.9999 2.08215C31.2249 2.08215 32.0041 2.10922 34.4458 2.21958C36.8874 2.32993 38.5541 2.7193 40.0124 3.28357C41.5395 3.86034 42.9249 4.76192 44.0708 5.92795C45.2374 7.07107 46.1374 8.45364 46.7124 9.98196C47.2791 11.4395 47.6666 13.1052 47.7791 15.5414C47.8916 17.988 47.9166 18.7667 47.9166 24.9862C47.9166 31.2078 47.8895 31.9865 47.7791 34.4289C47.6687 36.8651 47.2791 38.5308 46.7124 39.9883C46.1374 41.5168 45.2359 42.9017 44.0708 44.0465C42.9249 45.2125 41.5395 46.112 40.0124 46.6867C38.5541 47.2531 36.8874 47.6404 34.4499 47.7528C32.0041 47.8652 31.2249 47.8902 24.9999 47.8902C18.7749 47.8902 17.9958 47.8632 15.552 47.7528C13.1145 47.6424 11.4478 47.2531 9.9895 46.6867C8.46017 46.112 7.07454 45.211 5.92909 44.0465C4.76321 42.9027 3.86099 41.5185 3.28534 39.9904C2.72075 38.5329 2.33325 36.8671 2.22075 34.431C2.10825 31.9844 2.08325 31.2057 2.08325 24.9862C2.08325 18.7646 2.11034 17.9859 2.22075 15.5456C2.33117 13.1052 2.72075 11.4395 3.28534 9.98196C3.86184 8.45381 4.76475 7.06964 5.93117 5.92587C7.075 4.76089 8.45924 3.85918 9.98742 3.28357C11.4458 2.7193 13.1124 2.33202 15.5499 2.21958H15.552ZM34.2603 6.3423C31.8437 6.23195 31.1187 6.20904 24.9999 6.20904C18.8812 6.20904 18.1562 6.23195 15.7395 6.3423C13.5041 6.44433 12.2916 6.81704 11.4833 7.13145C10.4145 7.54789 9.64992 8.04137 8.84784 8.84301C8.08751 9.58229 7.50238 10.4823 7.13534 11.477C6.82075 12.2849 6.44784 13.4967 6.34575 15.7309C6.23534 18.1462 6.21242 18.8708 6.21242 24.9862C6.21242 31.1016 6.23534 31.8262 6.34575 34.2415C6.44784 36.4757 6.82075 37.6875 7.13534 38.4954C7.502 39.4886 8.08742 40.3902 8.84784 41.1294C9.58742 41.8894 10.4895 42.4745 11.4833 42.8409C12.2916 43.1553 13.5041 43.528 15.7395 43.6301C18.1562 43.7404 18.8791 43.7633 24.9999 43.7633C31.1208 43.7633 31.8437 43.7404 34.2603 43.6301C36.4958 43.528 37.7083 43.1553 38.5166 42.8409C39.5853 42.4245 40.3499 41.931 41.152 41.1294C41.9124 40.3902 42.4978 39.4886 42.8645 38.4954C43.1791 37.6875 43.552 36.4757 43.6541 34.2415C43.7645 31.8262 43.7874 31.1016 43.7874 24.9862C43.7874 18.8708 43.7645 18.1462 43.6541 15.7309C43.552 13.4967 43.1791 12.2849 42.8645 11.477C42.4478 10.4088 41.9541 9.64465 41.152 8.84301C40.4123 8.08316 39.5118 7.49835 38.5166 7.13145C37.7083 6.81704 36.4958 6.44433 34.2603 6.3423ZM22.0728 32.0469C23.7075 32.727 25.5278 32.8188 27.2227 32.3066C28.9176 31.7944 30.382 30.7099 31.3658 29.2385C32.3496 27.7671 32.7917 25.9999 32.6167 24.2389C32.4417 22.4779 31.6603 20.8322 30.4062 19.5829C29.6067 18.7843 28.6399 18.1729 27.5756 17.7925C26.5113 17.4122 25.3758 17.2724 24.251 17.3833C23.1261 17.4942 22.0398 17.853 21.0703 18.4338C20.1009 19.0147 19.2723 19.8031 18.6443 20.7424C18.0163 21.6817 17.6045 22.7484 17.4385 23.8659C17.2725 24.9833 17.3565 26.1237 17.6844 27.2048C18.0123 28.2859 18.5759 29.2809 19.3348 30.1182C20.0936 30.9555 21.0287 31.6142 22.0728 32.0469ZM16.6708 16.6616C17.7646 15.5684 19.0631 14.7012 20.4922 14.1096C21.9213 13.518 23.4531 13.2135 24.9999 13.2135C26.5468 13.2135 28.0785 13.518 29.5076 14.1096C30.9368 14.7012 32.2353 15.5684 33.3291 16.6616C34.4229 17.7548 35.2905 19.0526 35.8825 20.481C36.4745 21.9093 36.7791 23.4402 36.7791 24.9862C36.7791 26.5322 36.4745 28.0631 35.8825 29.4914C35.2905 30.9197 34.4229 32.2176 33.3291 33.3108C31.1201 35.5186 28.124 36.7589 24.9999 36.7589C21.8759 36.7589 18.8798 35.5186 16.6708 33.3108C14.4617 31.1029 13.2207 28.1085 13.2207 24.9862C13.2207 21.8639 14.4617 18.8694 16.6708 16.6616ZM39.3916 14.9667C39.6626 14.7112 39.8796 14.4039 40.0297 14.063C40.1798 13.7221 40.2599 13.3546 40.2654 12.9822C40.2708 12.6099 40.2014 12.2402 40.0613 11.8951C39.9213 11.55 39.7133 11.2365 39.4498 10.9732C39.1864 10.7098 38.8727 10.502 38.5274 10.362C38.1821 10.222 37.8122 10.1527 37.4396 10.1581C37.0671 10.1635 36.6994 10.2436 36.3583 10.3936C36.0173 10.5436 35.7098 10.7605 35.4541 11.0314C34.9568 11.5582 34.6846 12.258 34.6951 12.9822C34.7057 13.7064 34.9982 14.398 35.5107 14.9102C36.0231 15.4223 36.715 15.7147 37.4396 15.7253C38.1642 15.7358 38.8644 15.4637 39.3916 14.9667Z" />
</svg>
