<svg width="50" height="50" viewBox="0 0 50 50" fill="none" xmlns="http://www.w3.org/2000/svg">
<path fill-rule="evenodd" clip-rule="evenodd" d="M19.6438 18.6854H27.3813V22.5395C28.4959 20.3229 31.3542 18.3312 35.648 18.3312C43.8792 18.3312 45.8334 22.7437 45.8334 30.8395V45.8333H37.5001V32.6833C37.5001 28.0729 36.3855 25.4729 33.548 25.4729C29.6126 25.4729 27.9772 28.275 27.9772 32.6812V45.8333H19.6438V18.6854ZM5.35425 45.4791H13.6876V18.3312H5.35425V45.4791ZM14.8813 9.47913C14.8816 10.1776 14.7431 10.8692 14.4738 11.5137C14.2045 12.1582 13.8098 12.7427 13.3126 13.2333C12.3051 14.2346 10.9414 14.7951 9.52092 14.7916C8.10298 14.7907 6.7424 14.2316 5.73342 13.2354C5.23802 12.7431 4.84464 12.1579 4.5758 11.5134C4.30696 10.8688 4.16795 10.1775 4.16675 9.47913C4.16675 8.06871 4.72925 6.71871 5.7355 5.72288C6.74359 4.72529 8.10475 4.166 9.523 4.16663C10.9438 4.16663 12.3063 4.72704 13.3126 5.72288C14.3167 6.71871 14.8813 8.06871 14.8813 9.47913Z" fill="white"/>
</svg>
