<svg width="38" height="38" viewBox="0 0 38 38" fill="none" xmlns="http://www.w3.org/2000/svg">
<path d="M7.79167 16.4792C10.7917 22.375 15.625 27.1875 21.5208 30.2083L26.1042 25.625C26.6667 25.0625 27.5 24.875 28.2292 25.125C30.5625 25.8958 33.0833 26.3125 35.6667 26.3125C36.8125 26.3125 37.75 27.25 37.75 28.3958V35.6667C37.75 36.8125 36.8125 37.75 35.6667 37.75C16.1042 37.75 0.25 21.8958 0.25 2.33333C0.25 1.1875 1.1875 0.25 2.33333 0.25H9.625C10.7708 0.25 11.7083 1.1875 11.7083 2.33333C11.7083 4.9375 12.125 7.4375 12.8958 9.77083C13.125 10.5 12.9583 11.3125 12.375 11.8958L7.79167 16.4792Z" fill="white"/>
</svg>
