<svg width="50" height="49" viewBox="0 0 50 49" fill="none" xmlns="http://www.w3.org/2000/svg">
<path d="M25 4.90002C13.955 4.90002 5 13.6759 5 24.5C5 28.177 6.0539 31.6051 7.85156 34.5457L5.17904 44.1L15.1367 41.5384C18.0489 43.161 21.4108 44.1 25 44.1C36.045 44.1 45 35.3241 45 24.5C45 13.6759 36.045 4.90002 25 4.90002ZM18.1543 15.3572C18.4793 15.3572 18.8132 15.3552 19.1016 15.3699C19.4582 15.3781 19.8464 15.4037 20.2181 16.2089C20.6598 17.1661 21.6215 19.5672 21.7448 19.8106C21.8681 20.0539 21.9555 20.3406 21.7839 20.6591C21.6205 20.9858 21.5356 21.1835 21.2956 21.4726C21.0472 21.7535 20.7751 22.1025 20.5501 22.3148C20.3018 22.5582 20.0454 22.825 20.332 23.3101C20.6187 23.7952 21.6143 25.3855 23.0859 26.6693C24.9776 28.3255 26.5736 28.8345 27.0703 29.0778C27.567 29.3212 27.8546 29.2833 28.1413 28.9566C28.4363 28.6381 29.3802 27.5452 29.7135 27.0585C30.0385 26.5718 30.3703 26.656 30.8203 26.816C31.277 26.9761 33.7123 28.1518 34.209 28.3951C34.7057 28.6385 35.0313 28.759 35.1563 28.9566C35.2846 29.1608 35.2847 30.1327 34.8731 31.2662C34.4614 32.3981 32.4399 33.4927 31.5332 33.5695C30.6182 33.6528 29.7643 33.9725 25.5859 32.3604C20.5459 30.4151 17.3675 25.3562 17.1191 25.0296C16.8708 24.7111 15.1009 22.3994 15.1009 20.0147C15.1009 17.6219 16.3811 16.45 16.8294 15.9633C17.2861 15.4766 17.821 15.3572 18.1543 15.3572Z" fill="white"/>
</svg>
