<svg width="71" height="70" viewBox="0 0 71 70" fill="none" xmlns="http://www.w3.org/2000/svg">
<path d="M47 37.75C46.6425 37.75 46.34 37.9975 46.285 38.3275L45.7625 41.9575C44.9375 42.315 44.14 42.755 43.425 43.25L40.015 41.875C39.7125 41.875 39.355 41.875 39.1625 42.2325L36.4125 46.99C36.2475 47.2925 36.3025 47.65 36.5775 47.87L39.4925 50.125C39.4375 50.5925 39.41 51.0325 39.41 51.5C39.41 51.9675 39.4375 52.4075 39.4925 52.875L36.5775 55.13C36.33 55.35 36.2475 55.7075 36.4125 56.01L39.1625 60.7675C39.3275 61.125 39.685 61.125 40.015 61.125L43.425 59.75C44.14 60.245 44.91 60.7125 45.7625 61.0425L46.285 64.6725C46.34 65.0025 46.615 65.25 47 65.25H52.5C52.8025 65.25 53.105 65.0025 53.16 64.6725L53.6825 61.0425C54.5075 60.685 55.25 60.245 55.9925 59.75L59.375 61.125C59.7325 61.125 60.09 61.125 60.2825 60.7675L63.0325 56.01C63.1975 55.7075 63.115 55.35 62.8675 55.13L59.925 52.875C59.98 52.4075 60.035 51.9675 60.035 51.5C60.035 51.0325 60.0075 50.5925 59.925 50.125L62.84 47.87C63.0875 47.65 63.17 47.2925 63.005 46.99L60.255 42.2325C60.09 41.875 59.7325 41.875 59.375 41.875L55.9925 43.25C55.25 42.755 54.5075 42.2875 53.655 41.9575L53.1325 38.3275C53.105 37.9975 52.8025 37.75 52.5 37.75H47ZM49.75 47.375C52.0325 47.375 53.875 49.2175 53.875 51.5C53.875 53.7825 52.0325 55.625 49.75 55.625C47.44 55.625 45.625 53.7825 45.625 51.5C45.625 49.2175 47.4675 47.375 49.75 47.375ZM47 32.47V10.25H8.5V59.75H25V50.125H30.5825C31.215 41.05 38.1175 33.735 47 32.47ZM19.5 54.25H14V48.75H19.5V54.25ZM19.5 43.25H14V37.75H19.5V43.25ZM19.5 32.25H14V26.75H19.5V32.25ZM19.5 21.25H14V15.75H19.5V21.25ZM36 15.75H41.5V21.25H36V15.75ZM36 26.75H41.5V32.25H36V26.75ZM30.5 43.25H25V37.75H30.5V43.25ZM30.5 32.25H25V26.75H30.5V32.25ZM25 21.25V15.75H30.5V21.25H25Z" fill="#337AB7"/>
</svg>
