<svg width="71" height="70" viewBox="0 0 71 70" fill="none" xmlns="http://www.w3.org/2000/svg">
<path d="M38.4167 5.83331V9.56081L53 14.4258L63.5934 10.8966L65.4396 16.4266L56.5963 19.3754L65.6263 44.2021C63.9944 45.9055 62.0342 47.2606 59.8641 48.1854C57.694 49.1103 55.359 49.5859 53 49.5833C50.641 49.586 48.306 49.1106 46.1358 48.1857C43.9657 47.2608 42.0056 45.9056 40.3738 44.2021L49.3979 19.3754L38.4167 15.7121V55.4166H50.0834V61.25H20.9167V55.4166H32.5834V15.7121L21.5934 19.3754L30.6234 44.2021C28.9922 45.9057 27.0326 47.2609 24.8629 48.1858C22.6933 49.1107 20.3586 49.5861 18 49.5833C15.641 49.586 13.306 49.1106 11.1358 48.1857C8.96571 47.2608 7.00557 45.9056 5.37378 44.2021L14.3979 19.3754L5.56045 16.4296L7.4067 10.8937L18 14.4229L32.5834 9.56081V5.83331H38.4167ZM53 26.5504L48.8642 37.9166H57.1329L53 26.5504ZM18 26.5504L13.8642 37.9166H22.1329L18 26.5504Z" fill="#337AB7"/>
</svg>
