<svg width="61" height="60" viewBox="0 0 61 60" fill="none" xmlns="http://www.w3.org/2000/svg">
<g clip-path="url(#clip0_57_80)">
<path d="M60.1609 9.375C60.1609 11.4855 58.4851 13.4297 55.6609 15C52.2507 16.8867 47.1765 18.2227 41.3289 18.6211C40.907 18.4219 40.4617 18.2227 40.0164 18.0352C35.3875 16.1016 29.2468 15 22.6609 15C21.6882 15 20.739 15.0234 19.7898 15.0703L19.6609 15C16.8367 13.4297 15.1609 11.4855 15.1609 9.375C15.1609 4.19766 25.1335 0 37.6609 0C50.0828 0 60.1609 4.19766 60.1609 9.375ZM18.9929 18.8789C20.1882 18.7969 21.407 18.75 22.6609 18.75C29.95 18.75 36.4187 20.1914 40.532 22.4297C43.4382 24.0117 45.1609 25.9805 45.1609 28.125C45.1609 28.4883 45.0789 29.0508 44.9148 29.4961C44.3757 31.043 42.8289 32.4609 40.8132 33.668C40.8015 33.668 40.7781 33.6797 40.7664 33.6914C40.7312 33.7148 40.696 33.7266 40.6609 33.75C36.5593 36.0234 30.0203 37.5 22.6609 37.5C15.6765 37.5 9.42573 36.1758 5.29839 34.0898C5.07925 33.9727 4.86597 33.7617 4.65972 33.75C1.83433 32.1797 0.160889 30.2344 0.160889 28.125C0.160889 24.0469 6.42222 20.5664 15.1609 19.2891C16.3914 19.1016 17.6687 18.9609 18.9929 18.8789ZM46.0867 21.8672C49.4031 21.3516 52.4382 20.5312 55.0164 19.4648C56.9265 18.668 58.696 17.6836 60.1609 16.4766V20.625C60.1609 22.8867 58.2273 24.9727 55.0281 26.5898C53.3054 27.457 51.2312 28.1836 48.8875 28.7461C48.8992 28.5469 48.9109 28.3359 48.9109 28.125C48.9109 25.5586 47.6687 23.4492 46.0867 21.8672ZM45.1609 39.375C45.1609 41.4844 43.4851 43.4297 40.6609 45C40.45 45.0117 40.239 45.2227 40.0281 45.3398C35.8914 47.4258 29.6453 48.75 22.6609 48.75C15.3015 48.75 8.76479 47.2734 4.65972 45C1.83433 43.4297 0.160924 41.4844 0.160924 39.375V35.2266C1.61987 36.4336 3.39761 37.418 5.30894 38.2148C9.93901 40.1484 16.075 41.25 22.6609 41.25C29.2468 41.25 35.3875 40.1484 40.0164 38.2148C40.9304 37.8398 41.8093 37.4062 42.6414 36.9375C43.3562 36.5391 44.0242 36.0938 44.657 35.625C44.8328 35.4961 44.9968 35.3555 45.1609 35.2266V39.375ZM48.9109 32.5898C51.032 32.0039 53.1882 31.4766 55.0164 30.7148C56.9265 29.918 58.696 28.9336 60.1609 27.7266V31.875C60.1609 33.1055 59.575 34.3359 58.4148 35.4961C56.5046 37.4062 53.1414 38.9766 48.8875 39.9961C48.8992 39.7969 48.9109 39.5859 48.9109 39.375V32.5898ZM22.6609 52.5C29.2468 52.5 35.3875 51.3984 40.0164 49.4648C41.9265 48.668 43.696 47.6836 45.1609 46.4766V50.625C45.1609 55.8047 35.0828 60 22.6609 60C10.2343 60 0.160924 55.8047 0.160924 50.625V46.4766C1.61987 47.6836 3.39761 48.668 5.30894 49.4648C9.93901 51.3984 16.075 52.5 22.6609 52.5Z" fill="#337AB7"/>
</g>
<defs>
<clipPath id="clip0_57_80">
<rect width="60" height="60" fill="white" transform="translate(0.160889)"/>
</clipPath>
</defs>
</svg>
