<svg width="71" height="70" viewBox="0 0 71 70" fill="none" xmlns="http://www.w3.org/2000/svg">
<g clip-path="url(#clip0_57_84)">
<path d="M31.4641 61.25C31.4641 61.25 27.0891 61.25 27.0891 56.875C27.0891 52.5 31.4641 39.375 48.9641 39.375C66.4641 39.375 70.8391 52.5 70.8391 56.875C70.8391 61.25 66.4641 61.25 66.4641 61.25H31.4641ZM48.9641 35C52.4451 35 55.7835 33.6172 58.2449 31.1558C60.7063 28.6944 62.0891 25.356 62.0891 21.875C62.0891 18.394 60.7063 15.0556 58.2449 12.5942C55.7835 10.1328 52.4451 8.75 48.9641 8.75C45.4831 8.75 42.1447 10.1328 39.6833 12.5942C37.2219 15.0556 35.8391 18.394 35.8391 21.875C35.8391 25.356 37.2219 28.6944 39.6833 31.1558C42.1447 33.6172 45.4831 35 48.9641 35Z" fill="#337AB7"/>
<path fill-rule="evenodd" clip-rule="evenodd" d="M23.6591 61.25C23.0105 59.8842 22.6871 58.3867 22.7141 56.875C22.7141 50.9469 25.6891 44.8437 31.1841 40.6C28.4414 39.7549 25.5839 39.3416 22.7141 39.375C5.21411 39.375 0.839111 52.5 0.839111 56.875C0.839111 61.25 5.21411 61.25 5.21411 61.25H23.6591Z" fill="#337AB7"/>
<path d="M20.5266 35C23.4274 35 26.2094 33.8477 28.2606 31.7965C30.3118 29.7453 31.4641 26.9633 31.4641 24.0625C31.4641 21.1617 30.3118 18.3797 28.2606 16.3285C26.2094 14.2773 23.4274 13.125 20.5266 13.125C17.6258 13.125 14.8438 14.2773 12.7926 16.3285C10.7415 18.3797 9.58911 21.1617 9.58911 24.0625C9.58911 26.9633 10.7415 29.7453 12.7926 31.7965C14.8438 33.8477 17.6258 35 20.5266 35Z" fill="#337AB7"/>
</g>
<defs>
<clipPath id="clip0_57_84">
<rect width="70" height="70" fill="white" transform="translate(0.839111)"/>
</clipPath>
</defs>
</svg>
