<svg width="52" height="52" viewBox="0 0 52 52" fill="none" xmlns="http://www.w3.org/2000/svg">
<path d="M19.1192 0C24.1473 0 28.9694 1.99739 32.5248 5.55277C36.0802 9.10814 38.0776 13.9303 38.0776 18.9583C38.0776 23.6542 36.3567 27.9708 33.5276 31.2958L34.3151 32.0833H36.6192L51.2026 46.6667L46.8276 51.0417L32.2442 36.4583V34.1542L31.4567 33.3667C28.1317 36.1958 23.8151 37.9167 19.1192 37.9167C14.0912 37.9167 9.26903 35.9193 5.71366 32.3639C2.15828 28.8085 0.160889 23.9864 0.160889 18.9583C0.160889 13.9303 2.15828 9.10814 5.71366 5.55277C9.26903 1.99739 14.0912 0 19.1192 0ZM19.1192 5.83333C11.8276 5.83333 5.99422 11.6667 5.99422 18.9583C5.99422 26.25 11.8276 32.0833 19.1192 32.0833C26.4109 32.0833 32.2442 26.25 32.2442 18.9583C32.2442 11.6667 26.4109 5.83333 19.1192 5.83333Z" fill="#337AB7"/>
</svg>
