<svg width="24" height="25" viewBox="0 0 24 25" fill="none" xmlns="http://www.w3.org/2000/svg">
<g clip-path="url(#clip0_33_23)">
<path d="M6.62 11.2962C8.06 14.0624 10.38 16.3204 13.21 17.7377L15.41 15.5873C15.68 15.3233 16.08 15.2354 16.43 15.3527C17.55 15.7143 18.76 15.9098 20 15.9098C20.55 15.9098 21 16.3497 21 16.8873V20.2987C21 20.8363 20.55 21.2761 20 21.2761C10.61 21.2761 3 13.8376 3 4.65911C3 4.1215 3.45 3.68164 4 3.68164H7.5C8.05 3.68164 8.5 4.1215 8.5 4.65911C8.5 5.88095 8.7 7.05392 9.07 8.14869C9.18 8.49081 9.1 8.87202 8.82 9.14571L6.62 11.2962Z" fill="black"/>
</g>
<defs>
<clipPath id="clip0_33_23">
<rect width="24" height="23.4593" fill="white" transform="translate(0 0.749268)"/>
</clipPath>
</defs>
</svg>
