<svg width="24" height="25" viewBox="0 0 24 25" fill="none" xmlns="http://www.w3.org/2000/svg">
<path d="M11.9999 3.32935C6.6983 3.32935 2.3999 7.53091 2.3999 12.7131C2.3999 14.4735 2.90578 16.1147 3.76865 17.5226L2.48584 22.0968L7.26553 20.8704C8.66339 21.6472 10.2771 22.0968 11.9999 22.0968C17.3015 22.0968 21.5999 17.8952 21.5999 12.7131C21.5999 7.53091 17.3015 3.32935 11.9999 3.32935ZM8.71396 8.33584C8.86997 8.33584 9.03025 8.33491 9.16865 8.34195C9.33985 8.34586 9.52619 8.35811 9.70459 8.74363C9.91659 9.20187 10.3782 10.3514 10.4374 10.4679C10.4966 10.5845 10.5386 10.7217 10.4562 10.8742C10.3778 11.0306 10.337 11.1253 10.2218 11.2637C10.1026 11.3982 9.97196 11.5652 9.86397 11.6669C9.74476 11.7834 9.62168 11.9112 9.75928 12.1434C9.89688 12.3756 10.3748 13.137 11.0812 13.7516C11.9892 14.5446 12.7553 14.7882 12.9937 14.9048C13.2321 15.0213 13.3701 15.0031 13.5077 14.8467C13.6493 14.6942 14.1024 14.171 14.2624 13.938C14.4184 13.7049 14.5777 13.7453 14.7937 13.8219C15.0129 13.8985 16.1818 14.4614 16.4202 14.5779C16.6586 14.6944 16.8149 14.7521 16.8749 14.8467C16.9365 14.9445 16.9366 15.4098 16.739 15.9525C16.5414 16.4944 15.571 17.0184 15.1358 17.0552C14.6966 17.0951 14.2868 17.2482 12.2812 16.4763C9.86195 15.545 8.33629 13.123 8.21709 12.9666C8.09789 12.8141 7.24834 11.7074 7.24834 10.5657C7.24834 9.4201 7.86283 8.85905 8.07803 8.62602C8.29723 8.39299 8.55397 8.33584 8.71396 8.33584Z" fill="black"/>
</svg>
